PathFileType	4	(X/Y/Z)	Patient4_TMGait_0pt4_02_left_06.trc.trc
DataRate	CameraRate	NumFrames	NumMarkers	Units	OrigDataRate	OrigDataStartFrame	OrigNumFrames
74.866310160428	74.866310160428	5	33	mm	74.866310160428	1	       141
Frame#	Time	Sacral			L.Shoulder			Chest			R.Shoulder			Neck			R.ASIS			L.ASIS			R.Thigh.Superior			R.Thigh.Lateral			R.Thigh.Inferior			R.Patella			L.Thigh.Superior			L.Thigh.Lateral			L.Thigh.Inferior			L.Patella			L.Shank.Superior			L.Shank.Lateral			L.Shank.Inferior			R.Shank.Superior			R.Shank.Lateral			R.Shank.Inferior			R.Heel			R.Midfoot.Superior			R.Midfoot.Lateral			R.Toe			L.Heel			L.Midfoot.Lateral			L.Midfoot.Superior			L.Toe			L.Elbow			L.Wrist			R.Elbow			R.Wrist			
		X1	Y1	Z1	X2	Y2	Z2	X3	Y3	Z3	X4	Y4	Z4	X5	Y5	Z5	X6	Y6	Z6	X7	Y7	Z7	X8	Y8	Z8	X9	Y9	Z9	X10	Y10	Z10	X11	Y11	Z11	X12	Y12	Z12	X13	Y13	Z13	X14	Y14	Z14	X15	Y15	Z15	X16	Y16	Z16	X17	Y17	Z17	X18	Y18	Z18	X19	Y19	Z19	X20	Y20	Z20	X21	Y21	Z21	X22	Y22	Z22	X23	Y23	Z23	X24	Y24	Z24	X25	Y25	Z25	X26	Y26	Z26	X27	Y27	Z27	X28	Y28	Z28	X29	Y29	Z29	X30	Y30	Z30	X31	Y31	Z31	X32	Y32	Z32	X33	Y33	Z33	

1	8.060000000000	849.057290655826	996.751478404423	509.810947885567	995.303491331786	1429.018565201831	305.061413715052	1107.541136563493	1374.706348071791	465.235472489750	1024.646758743277	1447.987964958372	639.520620182329	982.374030825661	1495.468773472703	459.566460079701	1086.782257702596	949.048636677664	618.873032692990	1060.107908474407	963.834686710896	345.198091841578	1124.094991419805	742.301534114147	588.474961964394	1040.680380742743	632.564435971007	649.588761953279	1114.371949790590	579.576458165132	567.962347419579	1110.932745417774	491.466447940666	571.442506544322	1153.973049877099	785.589359734311	368.514469501042	1113.046176172825	658.917952476208	286.671931321665	1223.527771844251	602.168921892749	340.182145436239	1239.533035070396	512.635852103964	330.012000449451	1171.835446871216	443.647220127389	323.014652815937	1026.923247470502	406.772437762090	279.516258111327	1012.960813567315	275.088938803774	330.526428306163	1081.094639705963	402.564092329780	577.835842971851	1009.457146136159	300.222014781422	640.477630201465	1044.626654326038	204.755643145861	573.862365260572	905.759761446573	42.650435745975	547.298371555904	1077.379258871401	96.688997456173	580.132722538286	990.211466326884	37.311083002383	620.945992058286	1198.516299584129	43.230199021246	605.785287575003	823.171225053841	229.703252934223	374.472281171431	870.118366444524	172.275368036171	294.445262976486	976.713030841267	164.967509242030	311.758280285680	1035.207980737783	40.418994434680	286.566210883620	960.287267287712	1074.317222482629	201.009684599679	1011.191601178017	820.267734027207	182.004604987820	1088.618607292012	1126.885079924073	802.528342812529	1334.541594492413	1056.607198661481	776.080667739245	
2	8.073357142857	848.283225083029	997.990691935685	511.675872519854	993.640053610460	1429.718996328938	306.367459843295	1107.321026777956	1375.088437519008	465.398809101990	1026.446334819386	1448.909645551202	640.382952259857	982.711373331124	1496.225518487343	460.806242515441	1085.830243487074	949.152633535624	619.468137538776	1058.037477085392	964.856346704810	345.961823176041	1120.784200972446	741.750725955271	588.897201189712	1036.224962060752	632.841324027715	650.123105288638	1109.154606737709	579.123144070815	568.484012924601	1104.880401535829	491.436258973960	571.907927271231	1152.822974042282	788.707649621909	369.635262555971	1113.437618183576	661.632575122392	287.236045882948	1224.511287561305	606.229783622806	340.590786312727	1242.191644508519	517.592151990250	330.499109911501	1177.525630083319	447.014660890136	323.328361063603	1035.098494311329	403.077665157508	279.724878276089	1028.304278793722	271.079777929389	329.905476918661	1075.198932232366	402.685501703878	578.390289895829	1003.455733475910	300.320661745963	641.145774412151	1038.689570615978	204.903926065883	574.320784850896	900.045636646569	42.678993589154	547.435112754709	1071.691329775163	96.678100392209	580.287248707093	984.486944371404	37.274344802700	621.043824716987	1192.794428476314	43.185232618673	605.866642784895	842.343369950694	214.028127123029	374.196862629553	891.959853011196	161.396814651053	293.090536624922	998.259105129279	160.778591818995	309.981795861937	1064.078432421089	41.550396867720	282.386309742578	950.536787169501	1075.706556474148	204.726055151723	995.541739935822	820.637847797953	187.508256184396	1099.330451103113	1130.431534466878	802.464095592700	1346.726344274728	1074.361023856825	772.373534276925	
3	8.086714285714	847.493347455120	999.187435623686	513.496320263550	992.021249153054	1430.373013179694	307.654188607860	1107.126621416507	1375.401049160118	465.541796685593	1028.263304097679	1449.754637012564	641.218395866979	983.070357126535	1496.931619707382	462.019277170283	1084.880918209423	949.216320564991	620.008691133488	1055.964856840107	965.803784423246	346.666428424701	1117.481547135449	741.190276301496	589.262189371587	1031.825110137557	633.102364510436	650.654575074167	1103.960538477244	578.667154314590	568.976058771756	1098.870318663364	491.402948171670	572.370810114936	1151.578082868359	791.615597292515	370.705358822820	1113.658093084555	664.154181605349	287.796825345199	1225.240582730275	609.992772663784	341.082886776240	1244.549362796453	522.311806097105	331.038834265407	1182.980900091969	450.239009978062	323.629538653576	1043.252721482802	399.148212423785	279.861160479518	1043.787234295177	266.953514380459	329.191094117372	1069.343144783633	402.795726263566	578.935543754366	997.497626120186	300.403410124166	641.797255122884	1032.795960641003	205.041498711734	574.771033435687	894.361918856201	42.701402140686	547.566505276918	1066.027912437037	96.657084713154	580.422407378908	978.795710304812	37.237310967777	621.140943684675	1187.105501571459	43.144322184350	605.944929711482	861.992469841723	198.122099940313	373.765008361284	914.200564648671	150.404867668757	291.582846286988	1020.061108547852	156.545340121195	308.092562384920	1093.184466078622	42.867053671724	278.082732450158	940.871981351316	1077.093858946209	208.426503378338	980.096337291412	821.041834478582	192.972407516938	1109.964713120141	1133.932192810738	802.344893344149	1358.653265586940	1091.881352348317	768.645317994522	
4	8.100071428571	846.678051411479	1000.301046604898	515.225030587581	990.498855360364	1430.939079641467	308.887349098251	1106.985151472798	1375.582843542508	465.635272880763	1030.111061708733	1450.454411151032	641.988144793059	983.470534630179	1497.541358329166	463.165814663172	1083.943765385811	949.206222891469	620.438769192258	1053.892103149309	966.611207713884	347.252801805795	1114.213139741215	740.612388685494	589.518173753372	1027.547093059444	633.331675358465	651.170655876054	1098.831587962136	578.206730447660	569.405311953459	1092.960149591418	491.361531347887	572.817214655946	1150.146073644075	794.121327248299	371.674972491371	1113.561157888219	666.322452928262	288.318314779548	1225.484982738586	613.205084793264	341.707810684899	1246.338024113037	526.593053688842	331.659530700157	1187.969296203330	453.198506265884	323.904208536537	1051.335636956494	394.860374825403	279.846345090860	1059.402929227970	262.701405215697	328.326422357816	1063.574394417571	402.884142354034	579.456147654937	991.636983532129	300.458184901717	642.411456847151	1026.995139371779	205.158387533017	575.200345400708	888.741760442916	42.713610153440	547.688558403032	1060.420877693588	96.622454639447	580.529005469003	973.173288799387	37.200173917720	621.236459856729	1181.484177751685	43.111928832364	606.017543868378	882.353585625292	182.008001471584	373.034584250966	937.029616849568	139.352465515074	289.835457827401	1042.171162868159	152.322220537076	306.059761536199	1122.502727590293	44.559174597778	273.731949885156	931.446699330134	1078.463920818310	212.068631194792	965.116540221945	821.502273332669	198.329685005602	1120.396535732666	1137.318472409217	802.102203797093	1370.040573160243	1108.852628808393	764.884449253230	
5	8.113428571429	845.825362633872	1001.298013130818	516.826514191298	989.117235212296	1431.383907700920	310.034272458006	1106.920648672938	1375.582222962068	465.651054730798	1032.005288366253	1450.952319720242	642.656977302835	983.931422247630	1498.017021562597	464.210067523901	1083.025747249271	949.093438656972	620.712501385062	1051.814797381097	967.224178526404	347.672678139709	1111.001902607041	740.008055052633	589.625779951097	1023.440165816704	633.515114183392	651.658596019848	1093.795731820940	577.740008763988	569.742904626019	1087.186649210890	491.305924793761	573.229949174508	1148.442889275516	796.067770160293	372.506275207653	1113.027583878866	668.015804062628	288.759164488015	1225.052788587073	615.671919071700	342.504134738246	1247.351575883780	530.289945699706	332.380228084340	1192.313934182891	455.811511185983	324.148485589338	1059.340101110576	390.145225842756	279.598854742159	1075.148032269558	258.364889857440	327.282016702717	1057.919774663865	402.941604245294	579.937905722201	985.905165488174	300.475242092100	642.970468798101	1021.312417422182	205.245177247572	575.596090410577	883.194856225732	42.712099110732	547.798207976547	1054.878792553860	96.572441273205	580.600262952198	967.630645514582	37.162935882899	621.329522648635	1175.940433933330	43.092560630391	606.082990643844	903.615578231571	165.786427140442	371.881822260158	960.616495360583	128.351513851559	287.792705045696	1064.635579710199	148.210017204323	303.890152933080	1152.006673154178	46.829419921549	269.473370687202	922.389397360055	1079.801580043095	215.620372819230	950.792142702322	822.032923279011	203.530533117017	1130.539270613088	1140.532354157081	801.671851546479	1380.682298294672	1125.028197983969	761.074235547021	
